<?xml version="1.0" encoding="utf-8"?>
<!-- Generator: Adobe Illustrator 25.1.0, SVG Export Plug-In . SVG Version: 6.00 Build 0)  -->
<svg version="1.1" id="Layer_1" xmlns="http://www.w3.org/2000/svg" xmlns:xlink="http://www.w3.org/1999/xlink" x="0px" y="0px"
	 viewBox="0 0 195 125" style="enable-background:new 0 0 195 125;" xml:space="preserve">
<style type="text/css">
	.st0{fill:#007745;}
	.st1{fill:#CC8A00;}
	.st2{fill:#A1561C;}
	.st3{fill:#672146;}
</style>
<g>
	<g>
		<path class="st0" d="M113.02,80.53c-0.22,0-0.43-0.13-0.49-0.34c-0.08-0.26,0.04-0.54,0.3-0.62l3.46-1.08
			c2.23-0.85,3.94-2.75,4.56-5.08l6.32-24.2c0.07-0.27,0.34-0.43,0.61-0.36c0.27,0.07,0.43,0.34,0.36,0.61l-6.32,24.21
			c-0.7,2.64-2.64,4.79-5.2,5.77l-3.44,1.07C113.12,80.52,113.07,80.53,113.02,80.53z"/>
		<path class="st0" d="M87.3,80.51l-3.43-1.07c-2.58-0.98-4.52-3.14-5.22-5.77l-6.32-24.21c-0.07-0.27,0.09-0.54,0.36-0.61
			c0.27-0.07,0.54,0.09,0.61,0.36l6.32,24.21c0.62,2.32,2.33,4.23,4.58,5.08l3.38,1.05L87.3,80.51z"/>
		<path class="st0" d="M132.73,49.84h-65c-0.28,0-0.5-0.22-0.5-0.5s0.22-0.5,0.5-0.5h65c0.28,0,0.5,0.22,0.5,0.5
			S133,49.84,132.73,49.84z"/>
	</g>
	<path class="st0" d="M100.11,84.57c-0.89,0-1.78-0.12-2.64-0.36c-0.51-0.14-1.01-0.32-1.5-0.55c-0.18-0.08-0.31-0.25-0.31-0.46
		c0-0.35,0.39-0.6,0.71-0.45c0.45,0.2,0.91,0.37,1.37,0.5c1.55,0.43,3.21,0.43,4.75,0c0.42-0.11,0.84-0.26,1.25-0.44
		c0.25-0.11,0.54,0,0.66,0.24c0.11,0.25,0.02,0.54-0.23,0.66l-0.01,0c-0.48,0.21-0.95,0.38-1.41,0.5
		C101.89,84.45,101,84.57,100.11,84.57z"/>
	<path class="st0" d="M102.62,84.23c-0.21,0-0.4-0.13-0.47-0.33c-0.09-0.26,0.04-0.55,0.3-0.64l10.36-3.69l0.21,0.46l0.15,0.48
		l-10.39,3.7C102.73,84.22,102.67,84.23,102.62,84.23z"/>
	<path class="st0" d="M97.6,84.23c-0.06,0-0.12-0.01-0.17-0.03l-1.41-0.52c-0.01,0-0.02-0.01-0.03-0.01l-8.69-3.17
		c-0.26-0.09-0.41-0.38-0.32-0.64c0.09-0.26,0.35-0.4,0.61-0.31l0.03,0.01l8.67,3.16c0.01,0,0.02,0.01,0.03,0.01l1.44,0.53
		c0.26,0.09,0.39,0.38,0.3,0.64C97.99,84.1,97.8,84.23,97.6,84.23z"/>
</g>
</svg>
