<?xml version="1.0" encoding="utf-8"?>
<!-- Generator: Adobe Illustrator 25.0.0, SVG Export Plug-In . SVG Version: 6.00 Build 0)  -->
<svg version="1.1" id="Layer_1" xmlns="http://www.w3.org/2000/svg" xmlns:xlink="http://www.w3.org/1999/xlink" x="0px" y="0px"
	 viewBox="0 0 195 125" style="enable-background:new 0 0 195 125;" xml:space="preserve">
<style type="text/css">
	.st0{fill:none;stroke:#007745;stroke-linecap:round;stroke-linejoin:round;stroke-miterlimit:10;}
	.st1{fill:#007745;}
	.st2{fill:none;stroke:#007745;stroke-miterlimit:10;}
	.st3{fill:none;stroke:#E8A724;stroke-miterlimit:10;}
	.st4{fill:none;stroke:#6F260C;stroke-miterlimit:10;}
	.st5{fill:none;stroke:#8E1D52;stroke-miterlimit:10;}
	.st6{fill:none;stroke:#C5955D;stroke-miterlimit:10;}
</style>
<g>
	<g>
		<g>
			<path class="st0" d="M114.31,81.26c-0.01-0.08,0.02-0.15,0.01-0.24l-5.46-29.3c-0.13-0.69-0.56-1.28-1.17-1.61l-10.73-5.86
				c-0.25-0.14-0.52-0.22-0.8-0.26l-1.72-0.23c-0.19-0.03-0.38-0.02-0.57,0c-0.18-0.02-0.37-0.02-0.57,0l-1.72,0.23
				c-0.28,0.04-0.55,0.13-0.8,0.26l-10.73,5.86c-0.61,0.33-1.04,0.93-1.17,1.61l-5.46,29.3c-0.02,0.08,0.02,0.16,0.01,0.24H114.31z"
				/>
			<line class="st0" x1="67.54" y1="81.26" x2="120.22" y2="81.26"/>
		</g>
		<line class="st0" x1="86.88" y1="51.17" x2="100.88" y2="51.17"/>
	</g>
	<line class="st0" x1="78.38" y1="75.5" x2="109.38" y2="75.5"/>
</g>
</svg>
